<svg xmlns="http://www.w3.org/2000/svg" xmlns:xlink="http://www.w3.org/1999/xlink" contentStyleType="text/css" data-diagram-type="CLASS" height="1196px" preserveAspectRatio="none" style="width:1234px;height:1196px;background:#FFFFFF;" version="1.1" viewBox="0 0 1234 1196" width="1234px" zoomAndPan="magnify"><?plantuml 1.2026.6?><defs/><g><!--cluster language-extensions--><g class="cluster" data-qualified-name="language-extensions" data-source-line="5" id="ent0001"><path d="M988.24,212 L1153.9451,212 A3.75,3.75 0 0 1 1156.4451,214.5 L1163.4451,234.2969 L1216.91,234.2969 A2.5,2.5 0 0 1 1219.41,236.7969 L1219.41,830.5 A2.5,2.5 0 0 1 1216.91,833 L988.24,833 A2.5,2.5 0 0 1 985.74,830.5 L985.74,214.5 A2.5,2.5 0 0 1 988.24,212" fill="none" style="stroke:#000000;stroke-width:1.5;"/><line style="stroke:#000000;stroke-width:1.5;" x1="985.74" x2="1163.4451" y1="234.2969" y2="234.2969"/><text fill="#000000" font-family="sans-serif" font-size="14" font-weight="700" lengthAdjust="spacing" textLength="164.7051" x="989.74" y="226.9951">language-extensions</text></g><!--cluster plcc-java--><g class="cluster" data-qualified-name="language-extensions.plcc-java" data-source-line="6" id="ent0002"><path d="M1022.06,255 L1093.1079,255 A3.75,3.75 0 0 1 1095.6079,257.5 L1102.6079,277.2969 L1183.09,277.2969 A2.5,2.5 0 0 1 1185.59,279.7969 L1185.59,517.5 A2.5,2.5 0 0 1 1183.09,520 L1022.06,520 A2.5,2.5 0 0 1 1019.56,517.5 L1019.56,257.5 A2.5,2.5 0 0 1 1022.06,255" fill="none" style="stroke:#000000;stroke-width:1.5;"/><line style="stroke:#000000;stroke-width:1.5;" x1="1019.56" x2="1102.6079" y1="277.2969" y2="277.2969"/><text fill="#000000" font-family="sans-serif" font-size="14" font-weight="700" lengthAdjust="spacing" textLength="70.0479" x="1023.56" y="269.9951">plcc-java</text></g><!--cluster plcc-python--><g class="cluster" data-qualified-name="language-extensions.plcc-python" data-source-line="12" id="ent0006"><path d="M1012.24,544 L1105.8601,544 A3.75,3.75 0 0 1 1108.3601,546.5 L1115.3601,566.2969 L1192.91,566.2969 A2.5,2.5 0 0 1 1195.41,568.7969 L1195.41,806.5 A2.5,2.5 0 0 1 1192.91,809 L1012.24,809 A2.5,2.5 0 0 1 1009.74,806.5 L1009.74,546.5 A2.5,2.5 0 0 1 1012.24,544" fill="none" style="stroke:#000000;stroke-width:1.5;"/><line style="stroke:#000000;stroke-width:1.5;" x1="1009.74" x2="1115.3601" y1="566.2969" y2="566.2969"/><text fill="#000000" font-family="sans-serif" font-size="14" font-weight="700" lengthAdjust="spacing" textLength="92.6201" x="1013.74" y="558.9951">plcc-python</text></g><!--cluster parser-extensions--><g class="cluster" data-qualified-name="parser-extensions" data-source-line="19" id="ent0010"><path d="M675.38,544 L819.0255,544 A3.75,3.75 0 0 1 821.5255,546.5 L828.5255,566.2969 L901,566.2969 A2.5,2.5 0 0 1 903.5,568.7969 L903.5,707.5 A2.5,2.5 0 0 1 901,710 L675.38,710 A2.5,2.5 0 0 1 672.88,707.5 L672.88,546.5 A2.5,2.5 0 0 1 675.38,544" fill="none" style="stroke:#000000;stroke-width:1.5;"/><line style="stroke:#000000;stroke-width:1.5;" x1="672.88" x2="828.5255" y1="566.2969" y2="566.2969"/><text fill="#000000" font-family="sans-serif" font-size="14" font-weight="700" lengthAdjust="spacing" textLength="142.6455" x="676.88" y="558.9951">parser-extensions</text></g><!--cluster plcc-parser-table--><g class="cluster" data-qualified-name="parser-extensions.plcc-parser-table" data-source-line="20" id="ent0011"><path d="M699.38,587 L834.9796,587 A3.75,3.75 0 0 1 837.4796,589.5 L844.4796,609.2969 L877,609.2969 A2.5,2.5 0 0 1 879.5,611.7969 L879.5,683.5 A2.5,2.5 0 0 1 877,686 L699.38,686 A2.5,2.5 0 0 1 696.88,683.5 L696.88,589.5 A2.5,2.5 0 0 1 699.38,587" fill="none" style="stroke:#000000;stroke-width:1.5;"/><line style="stroke:#000000;stroke-width:1.5;" x1="696.88" x2="844.4796" y1="609.2969" y2="609.2969"/><text fill="#000000" font-family="sans-serif" font-size="14" font-weight="700" lengthAdjust="spacing" textLength="134.5996" x="700.88" y="601.9951">plcc-parser-table</text></g><!--cluster diagram-extensions--><g class="cluster" data-qualified-name="diagram-extensions" data-source-line="25" id="ent0013"><path d="M617.14,849 L774.9086,849 A3.75,3.75 0 0 1 777.4086,851.5 L784.4086,871.2969 L959.24,871.2969 A2.5,2.5 0 0 1 961.74,873.7969 L961.74,1178.5 A2.5,2.5 0 0 1 959.24,1181 L617.14,1181 A2.5,2.5 0 0 1 614.64,1178.5 L614.64,851.5 A2.5,2.5 0 0 1 617.14,849" fill="none" style="stroke:#000000;stroke-width:1.5;"/><line style="stroke:#000000;stroke-width:1.5;" x1="614.64" x2="784.4086" y1="871.2969" y2="871.2969"/><text fill="#000000" font-family="sans-serif" font-size="14" font-weight="700" lengthAdjust="spacing" textLength="156.7686" x="618.64" y="863.9951">diagram-extensions</text></g><!--cluster plcc-plantuml-diagram--><g class="cluster" data-qualified-name="diagram-extensions.plcc-plantuml-diagram" data-source-line="26" id="ent0014"><path d="M641.14,892 L820.6879,892 A3.75,3.75 0 0 1 823.1879,894.5 L830.1879,914.2969 L935.24,914.2969 A2.5,2.5 0 0 1 937.74,916.7969 L937.74,1154.5 A2.5,2.5 0 0 1 935.24,1157 L641.14,1157 A2.5,2.5 0 0 1 638.64,1154.5 L638.64,894.5 A2.5,2.5 0 0 1 641.14,892" fill="none" style="stroke:#000000;stroke-width:1.5;"/><line style="stroke:#000000;stroke-width:1.5;" x1="638.64" x2="830.1879" y1="914.2969" y2="914.2969"/><text fill="#000000" font-family="sans-serif" font-size="14" font-weight="700" lengthAdjust="spacing" textLength="178.5479" x="642.64" y="906.9951">plcc-plantuml-diagram</text></g><!--cluster core--><g class="cluster" data-qualified-name="core" data-source-line="33" id="ent0018"><path d="M179.84,6 L215.1564,6 A3.75,3.75 0 0 1 217.6564,8.5 L224.6564,28.2969 L869.15,28.2969 A2.5,2.5 0 0 1 871.65,30.7969 L871.65,517.5 A2.5,2.5 0 0 1 869.15,520 L179.84,520 A2.5,2.5 0 0 1 177.34,517.5 L177.34,8.5 A2.5,2.5 0 0 1 179.84,6" fill="none" style="stroke:#000000;stroke-width:1.5;"/><line style="stroke:#000000;stroke-width:1.5;" x1="177.34" x2="224.6564" y1="28.2969" y2="28.2969"/><text fill="#000000" font-family="sans-serif" font-size="14" font-weight="700" lengthAdjust="spacing" textLength="34.3164" x="181.34" y="20.9951">core</text></g><!--cluster plcc-diagram--><g class="cluster" data-qualified-name="plcc-diagram" data-source-line="68" id="ent0055"><path d="M165.17,714 L268.627,714 A3.75,3.75 0 0 1 271.127,716.5 L278.127,736.2969 L580.14,736.2969 A2.5,2.5 0 0 1 582.64,738.7969 L582.64,1000.5 A2.5,2.5 0 0 1 580.14,1003 L165.17,1003 A2.5,2.5 0 0 1 162.67,1000.5 L162.67,716.5 A2.5,2.5 0 0 1 165.17,714" fill="none" style="stroke:#000000;stroke-width:1.5;"/><line style="stroke:#000000;stroke-width:1.5;" x1="162.67" x2="278.127" y1="736.2969" y2="736.2969"/><text fill="#000000" font-family="sans-serif" font-size="14" font-weight="700" lengthAdjust="spacing" textLength="102.457" x="166.67" y="728.9951">plcc-diagram</text></g><!--class plcc-java-emit--><g class="entity" data-qualified-name="language-extensions.plcc-java.plcc-java-emit" data-source-line="7" id="ent0003"><rect fill="#F1F1F1" height="48" rx="2.5" ry="2.5" style="stroke:#181818;stroke-width:0.5;" width="131.2373" x="1036.95" y="290"/><ellipse cx="1051.95" cy="306" fill="#ADD1B2" rx="11" ry="11" style="stroke:#181818;stroke-width:1;"/><path d="M1054.9188,311.6406 Q1054.3406,311.9375 1053.7,312.0781 Q1053.0594,312.2344 1052.3563,312.2344 Q1049.8563,312.2344 1048.5281,310.5938 Q1047.2156,308.9375 1047.2156,305.8125 Q1047.2156,302.6875 1048.5281,301.0313 Q1049.8563,299.375 1052.3563,299.375 Q1053.0594,299.375 1053.7,299.5313 Q1054.3563,299.6875 1054.9188,299.9844 L1054.9188,302.7031 Q1054.2938,302.125 1053.7,301.8594 Q1053.1063,301.5781 1052.4813,301.5781 Q1051.1375,301.5781 1050.45,302.6563 Q1049.7625,303.7188 1049.7625,305.8125 Q1049.7625,307.9063 1050.45,308.9844 Q1051.1375,310.0469 1052.4813,310.0469 Q1053.1063,310.0469 1053.7,309.7813 Q1054.2938,309.5 1054.9188,308.9219 L1054.9188,311.6406 Z " fill="#000000"/><text fill="#000000" font-family="sans-serif" font-size="14" lengthAdjust="spacing" textLength="99.2373" x="1065.95" y="310.8467">plcc-java-emit</text><line style="stroke:#181818;stroke-width:0.5;" x1="1037.95" x2="1167.1873" y1="322" y2="322"/><line style="stroke:#181818;stroke-width:0.5;" x1="1037.95" x2="1167.1873" y1="330" y2="330"/></g><!--class plcc-java-build--><g class="entity" data-qualified-name="language-extensions.plcc-java.plcc-java-build" data-source-line="8" id="ent0004"><rect fill="#F1F1F1" height="48" rx="2.5" ry="2.5" style="stroke:#181818;stroke-width:0.5;" width="134.0332" x="1035.56" y="373"/><ellipse cx="1050.56" cy="389" fill="#ADD1B2" rx="11" ry="11" style="stroke:#181818;stroke-width:1;"/><path d="M1053.5288,394.6406 Q1052.9506,394.9375 1052.31,395.0781 Q1051.6694,395.2344 1050.9663,395.2344 Q1048.4663,395.2344 1047.1381,393.5938 Q1045.8256,391.9375 1045.8256,388.8125 Q1045.8256,385.6875 1047.1381,384.0313 Q1048.4663,382.375 1050.9663,382.375 Q1051.6694,382.375 1052.31,382.5313 Q1052.9663,382.6875 1053.5288,382.9844 L1053.5288,385.7031 Q1052.9038,385.125 1052.31,384.8594 Q1051.7163,384.5781 1051.0913,384.5781 Q1049.7475,384.5781 1049.06,385.6563 Q1048.3725,386.7188 1048.3725,388.8125 Q1048.3725,390.9063 1049.06,391.9844 Q1049.7475,393.0469 1051.0913,393.0469 Q1051.7163,393.0469 1052.31,392.7813 Q1052.9038,392.5 1053.5288,391.9219 L1053.5288,394.6406 Z " fill="#000000"/><text fill="#000000" font-family="sans-serif" font-size="14" lengthAdjust="spacing" textLength="102.0332" x="1064.56" y="393.8467">plcc-java-build</text><line style="stroke:#181818;stroke-width:0.5;" x1="1036.56" x2="1168.5932" y1="405" y2="405"/><line style="stroke:#181818;stroke-width:0.5;" x1="1036.56" x2="1168.5932" y1="413" y2="413"/></g><!--class plcc-java-run--><g class="entity" data-qualified-name="language-extensions.plcc-java.plcc-java-run" data-source-line="9" id="ent0005"><rect fill="#F1F1F1" height="48" rx="2.5" ry="2.5" style="stroke:#181818;stroke-width:0.5;" width="123.1094" x="1041.02" y="456"/><ellipse cx="1056.02" cy="472" fill="#ADD1B2" rx="11" ry="11" style="stroke:#181818;stroke-width:1;"/><path d="M1058.9888,477.6406 Q1058.4106,477.9375 1057.77,478.0781 Q1057.1294,478.2344 1056.4263,478.2344 Q1053.9263,478.2344 1052.5981,476.5938 Q1051.2856,474.9375 1051.2856,471.8125 Q1051.2856,468.6875 1052.5981,467.0313 Q1053.9263,465.375 1056.4263,465.375 Q1057.1294,465.375 1057.77,465.5313 Q1058.4263,465.6875 1058.9888,465.9844 L1058.9888,468.7031 Q1058.3638,468.125 1057.77,467.8594 Q1057.1763,467.5781 1056.5513,467.5781 Q1055.2075,467.5781 1054.52,468.6563 Q1053.8325,469.7188 1053.8325,471.8125 Q1053.8325,473.9063 1054.52,474.9844 Q1055.2075,476.0469 1056.5513,476.0469 Q1057.1763,476.0469 1057.77,475.7813 Q1058.3638,475.5 1058.9888,474.9219 L1058.9888,477.6406 Z " fill="#000000"/><text fill="#000000" font-family="sans-serif" font-size="14" lengthAdjust="spacing" textLength="91.1094" x="1070.02" y="476.8467">plcc-java-run</text><line style="stroke:#181818;stroke-width:0.5;" x1="1042.02" x2="1163.1294" y1="488" y2="488"/><line style="stroke:#181818;stroke-width:0.5;" x1="1042.02" x2="1163.1294" y1="496" y2="496"/></g><!--class plcc-python-emit--><g class="entity" data-qualified-name="language-extensions.plcc-python.plcc-python-emit" data-source-line="13" id="ent0007"><rect fill="#F1F1F1" height="48" rx="2.5" ry="2.5" style="stroke:#181818;stroke-width:0.5;" width="150.877" x="1027.13" y="579"/><ellipse cx="1042.13" cy="595" fill="#ADD1B2" rx="11" ry="11" style="stroke:#181818;stroke-width:1;"/><path d="M1045.0988,600.6406 Q1044.5206,600.9375 1043.88,601.0781 Q1043.2394,601.2344 1042.5363,601.2344 Q1040.0363,601.2344 1038.7081,599.5938 Q1037.3956,597.9375 1037.3956,594.8125 Q1037.3956,591.6875 1038.7081,590.0313 Q1040.0363,588.375 1042.5363,588.375 Q1043.2394,588.375 1043.88,588.5313 Q1044.5363,588.6875 1045.0988,588.9844 L1045.0988,591.7031 Q1044.4738,591.125 1043.88,590.8594 Q1043.2863,590.5781 1042.6613,590.5781 Q1041.3175,590.5781 1040.63,591.6563 Q1039.9425,592.7188 1039.9425,594.8125 Q1039.9425,596.9063 1040.63,597.9844 Q1041.3175,599.0469 1042.6613,599.0469 Q1043.2863,599.0469 1043.88,598.7813 Q1044.4738,598.5 1045.0988,597.9219 L1045.0988,600.6406 Z " fill="#000000"/><text fill="#000000" font-family="sans-serif" font-size="14" lengthAdjust="spacing" textLength="118.877" x="1056.13" y="599.8467">plcc-python-emit</text><line style="stroke:#181818;stroke-width:0.5;" x1="1028.13" x2="1177.007" y1="611" y2="611"/><line style="stroke:#181818;stroke-width:0.5;" x1="1028.13" x2="1177.007" y1="619" y2="619"/></g><!--class plcc-python-build--><g class="entity" data-qualified-name="language-extensions.plcc-python.plcc-python-build" data-source-line="14" id="ent0008"><rect fill="#F1F1F1" height="48" rx="2.5" ry="2.5" style="stroke:#181818;stroke-width:0.5;" width="153.6729" x="1025.74" y="662"/><ellipse cx="1040.74" cy="678" fill="#ADD1B2" rx="11" ry="11" style="stroke:#181818;stroke-width:1;"/><path d="M1043.7088,683.6406 Q1043.1306,683.9375 1042.49,684.0781 Q1041.8494,684.2344 1041.1463,684.2344 Q1038.6463,684.2344 1037.3181,682.5938 Q1036.0056,680.9375 1036.0056,677.8125 Q1036.0056,674.6875 1037.3181,673.0313 Q1038.6463,671.375 1041.1463,671.375 Q1041.8494,671.375 1042.49,671.5313 Q1043.1463,671.6875 1043.7088,671.9844 L1043.7088,674.7031 Q1043.0838,674.125 1042.49,673.8594 Q1041.8963,673.5781 1041.2713,673.5781 Q1039.9275,673.5781 1039.24,674.6563 Q1038.5525,675.7188 1038.5525,677.8125 Q1038.5525,679.9063 1039.24,680.9844 Q1039.9275,682.0469 1041.2713,682.0469 Q1041.8963,682.0469 1042.49,681.7813 Q1043.0838,681.5 1043.7088,680.9219 L1043.7088,683.6406 Z " fill="#000000"/><text fill="#000000" font-family="sans-serif" font-size="14" lengthAdjust="spacing" textLength="121.6729" x="1054.74" y="682.8467">plcc-python-build</text><line style="stroke:#181818;stroke-width:0.5;" x1="1026.74" x2="1178.4129" y1="694" y2="694"/><line style="stroke:#181818;stroke-width:0.5;" x1="1026.74" x2="1178.4129" y1="702" y2="702"/></g><!--class plcc-python-run--><g class="entity" data-qualified-name="language-extensions.plcc-python.plcc-python-run" data-source-line="15" id="ent0009"><rect fill="#F1F1F1" height="48" rx="2.5" ry="2.5" style="stroke:#181818;stroke-width:0.5;" width="142.749" x="1031.2" y="745"/><ellipse cx="1046.2" cy="761" fill="#ADD1B2" rx="11" ry="11" style="stroke:#181818;stroke-width:1;"/><path d="M1049.1688,766.6406 Q1048.5906,766.9375 1047.95,767.0781 Q1047.3094,767.2344 1046.6063,767.2344 Q1044.1063,767.2344 1042.7781,765.5938 Q1041.4656,763.9375 1041.4656,760.8125 Q1041.4656,757.6875 1042.7781,756.0313 Q1044.1063,754.375 1046.6063,754.375 Q1047.3094,754.375 1047.95,754.5313 Q1048.6063,754.6875 1049.1688,754.9844 L1049.1688,757.7031 Q1048.5438,757.125 1047.95,756.8594 Q1047.3563,756.5781 1046.7313,756.5781 Q1045.3875,756.5781 1044.7,757.6563 Q1044.0125,758.7188 1044.0125,760.8125 Q1044.0125,762.9063 1044.7,763.9844 Q1045.3875,765.0469 1046.7313,765.0469 Q1047.3563,765.0469 1047.95,764.7813 Q1048.5438,764.5 1049.1688,763.9219 L1049.1688,766.6406 Z " fill="#000000"/><text fill="#000000" font-family="sans-serif" font-size="14" lengthAdjust="spacing" textLength="110.749" x="1060.2" y="765.8467">plcc-python-run</text><line style="stroke:#181818;stroke-width:0.5;" x1="1032.2" x2="1172.949" y1="777" y2="777"/><line style="stroke:#181818;stroke-width:0.5;" x1="1032.2" x2="1172.949" y1="785" y2="785"/></g><!--class plcc-parser-table--><g class="entity" data-qualified-name="parser-extensions.plcc-parser-table.plcc-parser-table" data-source-line="21" id="ent0012"><rect fill="#F1F1F1" height="48" rx="2.5" ry="2.5" style="stroke:#181818;stroke-width:0.5;" width="150.6172" x="712.88" y="622"/><ellipse cx="727.88" cy="638" fill="#ADD1B2" rx="11" ry="11" style="stroke:#181818;stroke-width:1;"/><path d="M730.8488,643.6406 Q730.2706,643.9375 729.63,644.0781 Q728.9894,644.2344 728.2863,644.2344 Q725.7863,644.2344 724.4581,642.5938 Q723.1456,640.9375 723.1456,637.8125 Q723.1456,634.6875 724.4581,633.0313 Q725.7863,631.375 728.2863,631.375 Q728.9894,631.375 729.63,631.5313 Q730.2863,631.6875 730.8488,631.9844 L730.8488,634.7031 Q730.2238,634.125 729.63,633.8594 Q729.0363,633.5781 728.4113,633.5781 Q727.0675,633.5781 726.38,634.6563 Q725.6925,635.7188 725.6925,637.8125 Q725.6925,639.9063 726.38,640.9844 Q727.0675,642.0469 728.4113,642.0469 Q729.0363,642.0469 729.63,641.7813 Q730.2238,641.5 730.8488,640.9219 L730.8488,643.6406 Z " fill="#000000"/><text fill="#000000" font-family="sans-serif" font-size="14" lengthAdjust="spacing" textLength="118.6172" x="741.88" y="642.8467">plcc-parser-table</text><line style="stroke:#181818;stroke-width:0.5;" x1="713.88" x2="862.4972" y1="654" y2="654"/><line style="stroke:#181818;stroke-width:0.5;" x1="713.88" x2="862.4972" y1="662" y2="662"/></g><!--class plcc-diagram-class-plantuml-emit--><g class="entity" data-qualified-name="diagram-extensions.plcc-plantuml-diagram.plcc-diagram-class-plantuml-emit" data-source-line="27" id="ent0015"><rect fill="#F1F1F1" height="48" rx="2.5" ry="2.5" style="stroke:#181818;stroke-width:0.5;" width="267.0947" x="654.64" y="1010"/><ellipse cx="669.64" cy="1026" fill="#ADD1B2" rx="11" ry="11" style="stroke:#181818;stroke-width:1;"/><path d="M672.6088,1031.6406 Q672.0306,1031.9375 671.39,1032.0781 Q670.7494,1032.2344 670.0463,1032.2344 Q667.5463,1032.2344 666.2181,1030.5938 Q664.9056,1028.9375 664.9056,1025.8125 Q664.9056,1022.6875 666.2181,1021.0313 Q667.5463,1019.375 670.0463,1019.375 Q670.7494,1019.375 671.39,1019.5313 Q672.0463,1019.6875 672.6088,1019.9844 L672.6088,1022.7031 Q671.9838,1022.125 671.39,1021.8594 Q670.7963,1021.5781 670.1713,1021.5781 Q668.8275,1021.5781 668.14,1022.6563 Q667.4525,1023.7188 667.4525,1025.8125 Q667.4525,1027.9063 668.14,1028.9844 Q668.8275,1030.0469 670.1713,1030.0469 Q670.7963,1030.0469 671.39,1029.7813 Q671.9838,1029.5 672.6088,1028.9219 L672.6088,1031.6406 Z " fill="#000000"/><text fill="#000000" font-family="sans-serif" font-size="14" lengthAdjust="spacing" textLength="235.0947" x="683.64" y="1030.8467">plcc-diagram-class-plantuml-emit</text><line style="stroke:#181818;stroke-width:0.5;" x1="655.64" x2="920.7347" y1="1042" y2="1042"/><line style="stroke:#181818;stroke-width:0.5;" x1="655.64" x2="920.7347" y1="1050" y2="1050"/></g><!--class plcc-diagram-plantuml-build--><g class="entity" data-qualified-name="diagram-extensions.plcc-plantuml-diagram.plcc-diagram-plantuml-build" data-source-line="28" id="ent0016"><rect fill="#F1F1F1" height="48" rx="2.5" ry="2.5" style="stroke:#181818;stroke-width:0.5;" width="230.085" x="673.15" y="927"/><ellipse cx="688.15" cy="943" fill="#ADD1B2" rx="11" ry="11" style="stroke:#181818;stroke-width:1;"/><path d="M691.1188,948.6406 Q690.5406,948.9375 689.9,949.0781 Q689.2594,949.2344 688.5563,949.2344 Q686.0563,949.2344 684.7281,947.5938 Q683.4156,945.9375 683.4156,942.8125 Q683.4156,939.6875 684.7281,938.0313 Q686.0563,936.375 688.5563,936.375 Q689.2594,936.375 689.9,936.5313 Q690.5563,936.6875 691.1188,936.9844 L691.1188,939.7031 Q690.4938,939.125 689.9,938.8594 Q689.3063,938.5781 688.6813,938.5781 Q687.3375,938.5781 686.65,939.6563 Q685.9625,940.7188 685.9625,942.8125 Q685.9625,944.9063 686.65,945.9844 Q687.3375,947.0469 688.6813,947.0469 Q689.3063,947.0469 689.9,946.7813 Q690.4938,946.5 691.1188,945.9219 L691.1188,948.6406 Z " fill="#000000"/><text fill="#000000" font-family="sans-serif" font-size="14" lengthAdjust="spacing" textLength="198.085" x="702.15" y="947.8467">plcc-diagram-plantuml-build</text><line style="stroke:#181818;stroke-width:0.5;" x1="674.15" x2="902.235" y1="959" y2="959"/><line style="stroke:#181818;stroke-width:0.5;" x1="674.15" x2="902.235" y1="967" y2="967"/></g><!--class plcc-diagram-plantuml-run--><g class="entity" data-qualified-name="diagram-extensions.plcc-plantuml-diagram.plcc-diagram-plantuml-run" data-source-line="29" id="ent0017"><rect fill="#F1F1F1" height="48" rx="2.5" ry="2.5" style="stroke:#181818;stroke-width:0.5;" width="219.1611" x="678.61" y="1093"/><ellipse cx="693.61" cy="1109" fill="#ADD1B2" rx="11" ry="11" style="stroke:#181818;stroke-width:1;"/><path d="M696.5788,1114.6406 Q696.0006,1114.9375 695.36,1115.0781 Q694.7194,1115.2344 694.0163,1115.2344 Q691.5163,1115.2344 690.1881,1113.5938 Q688.8756,1111.9375 688.8756,1108.8125 Q688.8756,1105.6875 690.1881,1104.0313 Q691.5163,1102.375 694.0163,1102.375 Q694.7194,1102.375 695.36,1102.5313 Q696.0163,1102.6875 696.5788,1102.9844 L696.5788,1105.7031 Q695.9538,1105.125 695.36,1104.8594 Q694.7663,1104.5781 694.1413,1104.5781 Q692.7975,1104.5781 692.11,1105.6563 Q691.4225,1106.7188 691.4225,1108.8125 Q691.4225,1110.9063 692.11,1111.9844 Q692.7975,1113.0469 694.1413,1113.0469 Q694.7663,1113.0469 695.36,1112.7813 Q695.9538,1112.5 696.5788,1111.9219 L696.5788,1114.6406 Z " fill="#000000"/><text fill="#000000" font-family="sans-serif" font-size="14" lengthAdjust="spacing" textLength="187.1611" x="707.61" y="1113.8467">plcc-diagram-plantuml-run</text><line style="stroke:#181818;stroke-width:0.5;" x1="679.61" x2="896.7711" y1="1125" y2="1125"/><line style="stroke:#181818;stroke-width:0.5;" x1="679.61" x2="896.7711" y1="1133" y2="1133"/></g><!--class plcc-version--><g class="entity" data-qualified-name="core.plcc-version" data-source-line="35" id="ent0019"><rect fill="#F1F1F1" height="48" rx="2.5" ry="2.5" style="stroke:#181818;stroke-width:0.5;" width="116.499" x="202.95" y="456"/><ellipse cx="217.95" cy="472" fill="#ADD1B2" rx="11" ry="11" style="stroke:#181818;stroke-width:1;"/><path d="M220.9188,477.6406 Q220.3406,477.9375 219.7,478.0781 Q219.0594,478.2344 218.3563,478.2344 Q215.8563,478.2344 214.5281,476.5938 Q213.2156,474.9375 213.2156,471.8125 Q213.2156,468.6875 214.5281,467.0313 Q215.8563,465.375 218.3563,465.375 Q219.0594,465.375 219.7,465.5313 Q220.3563,465.6875 220.9188,465.9844 L220.9188,468.7031 Q220.2938,468.125 219.7,467.8594 Q219.1063,467.5781 218.4813,467.5781 Q217.1375,467.5781 216.45,468.6563 Q215.7625,469.7188 215.7625,471.8125 Q215.7625,473.9063 216.45,474.9844 Q217.1375,476.0469 218.4813,476.0469 Q219.1063,476.0469 219.7,475.7813 Q220.2938,475.5 220.9188,474.9219 L220.9188,477.6406 Z " fill="#000000"/><text fill="#000000" font-family="sans-serif" font-size="14" lengthAdjust="spacing" textLength="84.499" x="231.95" y="476.8467">plcc-version</text><line style="stroke:#181818;stroke-width:0.5;" x1="203.95" x2="318.449" y1="488" y2="488"/><line style="stroke:#181818;stroke-width:0.5;" x1="203.95" x2="318.449" y1="496" y2="496"/></g><!--class plcc-lang-list--><g class="entity" data-qualified-name="core.plcc-lang-list" data-source-line="36" id="ent0020"><rect fill="#F1F1F1" height="48" rx="2.5" ry="2.5" style="stroke:#181818;stroke-width:0.5;" width="121.0654" x="200.67" y="373"/><ellipse cx="215.67" cy="389" fill="#ADD1B2" rx="11" ry="11" style="stroke:#181818;stroke-width:1;"/><path d="M218.6388,394.6406 Q218.0606,394.9375 217.42,395.0781 Q216.7794,395.2344 216.0763,395.2344 Q213.5763,395.2344 212.2481,393.5938 Q210.9356,391.9375 210.9356,388.8125 Q210.9356,385.6875 212.2481,384.0313 Q213.5763,382.375 216.0763,382.375 Q216.7794,382.375 217.42,382.5313 Q218.0763,382.6875 218.6388,382.9844 L218.6388,385.7031 Q218.0138,385.125 217.42,384.8594 Q216.8263,384.5781 216.2013,384.5781 Q214.8575,384.5781 214.17,385.6563 Q213.4825,386.7188 213.4825,388.8125 Q213.4825,390.9063 214.17,391.9844 Q214.8575,393.0469 216.2013,393.0469 Q216.8263,393.0469 217.42,392.7813 Q218.0138,392.5 218.6388,391.9219 L218.6388,394.6406 Z " fill="#000000"/><text fill="#000000" font-family="sans-serif" font-size="14" lengthAdjust="spacing" textLength="89.0654" x="229.67" y="393.8467">plcc-lang-list</text><line style="stroke:#181818;stroke-width:0.5;" x1="201.67" x2="320.7354" y1="405" y2="405"/><line style="stroke:#181818;stroke-width:0.5;" x1="201.67" x2="320.7354" y1="413" y2="413"/></g><!--class plcc-parser-list--><g class="entity" data-qualified-name="core.plcc-parser-list" data-source-line="37" id="ent0021"><rect fill="#F1F1F1" height="48" rx="2.5" ry="2.5" style="stroke:#181818;stroke-width:0.5;" width="135.7217" x="193.34" y="290"/><ellipse cx="208.34" cy="306" fill="#ADD1B2" rx="11" ry="11" style="stroke:#181818;stroke-width:1;"/><path d="M211.3088,311.6406 Q210.7306,311.9375 210.09,312.0781 Q209.4494,312.2344 208.7463,312.2344 Q206.2463,312.2344 204.9181,310.5938 Q203.6056,308.9375 203.6056,305.8125 Q203.6056,302.6875 204.9181,301.0313 Q206.2463,299.375 208.7463,299.375 Q209.4494,299.375 210.09,299.5313 Q210.7463,299.6875 211.3088,299.9844 L211.3088,302.7031 Q210.6838,302.125 210.09,301.8594 Q209.4963,301.5781 208.8713,301.5781 Q207.5275,301.5781 206.84,302.6563 Q206.1525,303.7188 206.1525,305.8125 Q206.1525,307.9063 206.84,308.9844 Q207.5275,310.0469 208.8713,310.0469 Q209.4963,310.0469 210.09,309.7813 Q210.6838,309.5 211.3088,308.9219 L211.3088,311.6406 Z " fill="#000000"/><text fill="#000000" font-family="sans-serif" font-size="14" lengthAdjust="spacing" textLength="103.7217" x="222.34" y="310.8467">plcc-parser-list</text><line style="stroke:#181818;stroke-width:0.5;" x1="194.34" x2="328.0617" y1="322" y2="322"/><line style="stroke:#181818;stroke-width:0.5;" x1="194.34" x2="328.0617" y1="330" y2="330"/></g><!--class plcc-scan--><g class="entity" data-qualified-name="core.plcc-scan" data-source-line="39" id="ent0022"><rect fill="#F1F1F1" height="48" rx="2.5" ry="2.5" style="stroke:#181818;stroke-width:0.5;" width="97.666" x="212.37" y="41"/><ellipse cx="227.37" cy="57" fill="#ADD1B2" rx="11" ry="11" style="stroke:#181818;stroke-width:1;"/><path d="M230.3388,62.6406 Q229.7606,62.9375 229.12,63.0781 Q228.4794,63.2344 227.7763,63.2344 Q225.2763,63.2344 223.9481,61.5938 Q222.6356,59.9375 222.6356,56.8125 Q222.6356,53.6875 223.9481,52.0313 Q225.2763,50.375 227.7763,50.375 Q228.4794,50.375 229.12,50.5313 Q229.7763,50.6875 230.3388,50.9844 L230.3388,53.7031 Q229.7138,53.125 229.12,52.8594 Q228.5263,52.5781 227.9013,52.5781 Q226.5575,52.5781 225.87,53.6563 Q225.1825,54.7188 225.1825,56.8125 Q225.1825,58.9063 225.87,59.9844 Q226.5575,61.0469 227.9013,61.0469 Q228.5263,61.0469 229.12,60.7813 Q229.7138,60.5 230.3388,59.9219 L230.3388,62.6406 Z " fill="#000000"/><text fill="#000000" font-family="sans-serif" font-size="14" lengthAdjust="spacing" textLength="65.666" x="241.37" y="61.8467">plcc-scan</text><line style="stroke:#181818;stroke-width:0.5;" x1="213.37" x2="309.036" y1="73" y2="73"/><line style="stroke:#181818;stroke-width:0.5;" x1="213.37" x2="309.036" y1="81" y2="81"/></g><!--class plcc-make--><g class="entity" data-qualified-name="core.plcc-make" data-source-line="39" id="ent0023"><rect fill="#F1F1F1" height="48" rx="2.5" ry="2.5" style="stroke:#181818;stroke-width:0.5;" width="104.1602" x="425.1" y="207"/><ellipse cx="440.1" cy="223" fill="#ADD1B2" rx="11" ry="11" style="stroke:#181818;stroke-width:1;"/><path d="M443.0688,228.6406 Q442.4906,228.9375 441.85,229.0781 Q441.2094,229.2344 440.5063,229.2344 Q438.0063,229.2344 436.6781,227.5938 Q435.3656,225.9375 435.3656,222.8125 Q435.3656,219.6875 436.6781,218.0313 Q438.0063,216.375 440.5063,216.375 Q441.2094,216.375 441.85,216.5313 Q442.5063,216.6875 443.0688,216.9844 L443.0688,219.7031 Q442.4438,219.125 441.85,218.8594 Q441.2563,218.5781 440.6313,218.5781 Q439.2875,218.5781 438.6,219.6563 Q437.9125,220.7188 437.9125,222.8125 Q437.9125,224.9063 438.6,225.9844 Q439.2875,227.0469 440.6313,227.0469 Q441.2563,227.0469 441.85,226.7813 Q442.4438,226.5 443.0688,225.9219 L443.0688,228.6406 Z " fill="#000000"/><text fill="#000000" font-family="sans-serif" font-size="14" lengthAdjust="spacing" textLength="72.1602" x="454.1" y="227.8467">plcc-make</text><line style="stroke:#181818;stroke-width:0.5;" x1="426.1" x2="528.2602" y1="239" y2="239"/><line style="stroke:#181818;stroke-width:0.5;" x1="426.1" x2="528.2602" y1="247" y2="247"/></g><!--class plcc-tokens--><g class="entity" data-qualified-name="core.plcc-tokens" data-source-line="40" id="ent0025"><rect fill="#F1F1F1" height="48" rx="2.5" ry="2.5" style="stroke:#181818;stroke-width:0.5;" width="112.165" x="421.1" y="124"/><ellipse cx="436.1" cy="140" fill="#ADD1B2" rx="11" ry="11" style="stroke:#181818;stroke-width:1;"/><path d="M439.0688,145.6406 Q438.4906,145.9375 437.85,146.0781 Q437.2094,146.2344 436.5063,146.2344 Q434.0063,146.2344 432.6781,144.5938 Q431.3656,142.9375 431.3656,139.8125 Q431.3656,136.6875 432.6781,135.0313 Q434.0063,133.375 436.5063,133.375 Q437.2094,133.375 437.85,133.5313 Q438.5063,133.6875 439.0688,133.9844 L439.0688,136.7031 Q438.4438,136.125 437.85,135.8594 Q437.2563,135.5781 436.6313,135.5781 Q435.2875,135.5781 434.6,136.6563 Q433.9125,137.7188 433.9125,139.8125 Q433.9125,141.9063 434.6,142.9844 Q435.2875,144.0469 436.6313,144.0469 Q437.2563,144.0469 437.85,143.7813 Q438.4438,143.5 439.0688,142.9219 L439.0688,145.6406 Z " fill="#000000"/><text fill="#000000" font-family="sans-serif" font-size="14" lengthAdjust="spacing" textLength="80.165" x="450.1" y="144.8467">plcc-tokens</text><line style="stroke:#181818;stroke-width:0.5;" x1="422.1" x2="532.265" y1="156" y2="156"/><line style="stroke:#181818;stroke-width:0.5;" x1="422.1" x2="532.265" y1="164" y2="164"/></g><!--class plcc-parse--><g class="entity" data-qualified-name="core.plcc-parse" data-source-line="42" id="ent0027"><rect fill="#F1F1F1" height="48" rx="2.5" ry="2.5" style="stroke:#181818;stroke-width:0.5;" width="104.3516" x="209.02" y="124"/><ellipse cx="224.02" cy="140" fill="#ADD1B2" rx="11" ry="11" style="stroke:#181818;stroke-width:1;"/><path d="M226.9888,145.6406 Q226.4106,145.9375 225.77,146.0781 Q225.1294,146.2344 224.4263,146.2344 Q221.9263,146.2344 220.5981,144.5938 Q219.2856,142.9375 219.2856,139.8125 Q219.2856,136.6875 220.5981,135.0313 Q221.9263,133.375 224.4263,133.375 Q225.1294,133.375 225.77,133.5313 Q226.4263,133.6875 226.9888,133.9844 L226.9888,136.7031 Q226.3638,136.125 225.77,135.8594 Q225.1763,135.5781 224.5513,135.5781 Q223.2075,135.5781 222.52,136.6563 Q221.8325,137.7188 221.8325,139.8125 Q221.8325,141.9063 222.52,142.9844 Q223.2075,144.0469 224.5513,144.0469 Q225.1763,144.0469 225.77,143.7813 Q226.3638,143.5 226.9888,142.9219 L226.9888,145.6406 Z " fill="#000000"/><text fill="#000000" font-family="sans-serif" font-size="14" lengthAdjust="spacing" textLength="72.3516" x="238.02" y="144.8467">plcc-parse</text><line style="stroke:#181818;stroke-width:0.5;" x1="210.02" x2="312.3716" y1="156" y2="156"/><line style="stroke:#181818;stroke-width:0.5;" x1="210.02" x2="312.3716" y1="164" y2="164"/></g><!--class plcc-trees--><g class="entity" data-qualified-name="core.plcc-trees" data-source-line="44" id="ent0030"><rect fill="#F1F1F1" height="48" rx="2.5" ry="2.5" style="stroke:#181818;stroke-width:0.5;" width="100.9883" x="426.69" y="290"/><ellipse cx="441.69" cy="306" fill="#ADD1B2" rx="11" ry="11" style="stroke:#181818;stroke-width:1;"/><path d="M444.6588,311.6406 Q444.0806,311.9375 443.44,312.0781 Q442.7994,312.2344 442.0963,312.2344 Q439.5963,312.2344 438.2681,310.5938 Q436.9556,308.9375 436.9556,305.8125 Q436.9556,302.6875 438.2681,301.0313 Q439.5963,299.375 442.0963,299.375 Q442.7994,299.375 443.44,299.5313 Q444.0963,299.6875 444.6588,299.9844 L444.6588,302.7031 Q444.0338,302.125 443.44,301.8594 Q442.8463,301.5781 442.2213,301.5781 Q440.8775,301.5781 440.19,302.6563 Q439.5025,303.7188 439.5025,305.8125 Q439.5025,307.9063 440.19,308.9844 Q440.8775,310.0469 442.2213,310.0469 Q442.8463,310.0469 443.44,309.7813 Q444.0338,309.5 444.6588,308.9219 L444.6588,311.6406 Z " fill="#000000"/><text fill="#000000" font-family="sans-serif" font-size="14" lengthAdjust="spacing" textLength="68.9883" x="455.69" y="310.8467">plcc-trees</text><line style="stroke:#181818;stroke-width:0.5;" x1="427.69" x2="526.6783" y1="322" y2="322"/><line style="stroke:#181818;stroke-width:0.5;" x1="427.69" x2="526.6783" y1="330" y2="330"/></g><!--class plcc-rep--><g class="entity" data-qualified-name="core.plcc-rep" data-source-line="46" id="ent0032"><rect fill="#F1F1F1" height="48" rx="2.5" ry="2.5" style="stroke:#181818;stroke-width:0.5;" width="88.4785" x="216.96" y="207"/><ellipse cx="231.96" cy="223" fill="#ADD1B2" rx="11" ry="11" style="stroke:#181818;stroke-width:1;"/><path d="M234.9288,228.6406 Q234.3506,228.9375 233.71,229.0781 Q233.0694,229.2344 232.3663,229.2344 Q229.8663,229.2344 228.5381,227.5938 Q227.2256,225.9375 227.2256,222.8125 Q227.2256,219.6875 228.5381,218.0313 Q229.8663,216.375 232.3663,216.375 Q233.0694,216.375 233.71,216.5313 Q234.3663,216.6875 234.9288,216.9844 L234.9288,219.7031 Q234.3038,219.125 233.71,218.8594 Q233.1163,218.5781 232.4913,218.5781 Q231.1475,218.5781 230.46,219.6563 Q229.7725,220.7188 229.7725,222.8125 Q229.7725,224.9063 230.46,225.9844 Q231.1475,227.0469 232.4913,227.0469 Q233.1163,227.0469 233.71,226.7813 Q234.3038,226.5 234.9288,225.9219 L234.9288,228.6406 Z " fill="#000000"/><text fill="#000000" font-family="sans-serif" font-size="14" lengthAdjust="spacing" textLength="56.4785" x="245.96" y="227.8467">plcc-rep</text><line style="stroke:#181818;stroke-width:0.5;" x1="217.96" x2="304.4385" y1="239" y2="239"/><line style="stroke:#181818;stroke-width:0.5;" x1="217.96" x2="304.4385" y1="247" y2="247"/></g><!--class plcc-lang-run--><g class="entity" data-qualified-name="core.plcc-lang-run" data-source-line="49" id="ent0036"><rect fill="#F1F1F1" height="48" rx="2.5" ry="2.5" style="stroke:#181818;stroke-width:0.5;" width="124.0049" x="415.18" y="456"/><ellipse cx="430.18" cy="472" fill="#ADD1B2" rx="11" ry="11" style="stroke:#181818;stroke-width:1;"/><path d="M433.1488,477.6406 Q432.5706,477.9375 431.93,478.0781 Q431.2894,478.2344 430.5863,478.2344 Q428.0863,478.2344 426.7581,476.5938 Q425.4456,474.9375 425.4456,471.8125 Q425.4456,468.6875 426.7581,467.0313 Q428.0863,465.375 430.5863,465.375 Q431.2894,465.375 431.93,465.5313 Q432.5863,465.6875 433.1488,465.9844 L433.1488,468.7031 Q432.5238,468.125 431.93,467.8594 Q431.3363,467.5781 430.7113,467.5781 Q429.3675,467.5781 428.68,468.6563 Q427.9925,469.7188 427.9925,471.8125 Q427.9925,473.9063 428.68,474.9844 Q429.3675,476.0469 430.7113,476.0469 Q431.3363,476.0469 431.93,475.7813 Q432.5238,475.5 433.1488,474.9219 L433.1488,477.6406 Z " fill="#000000"/><text fill="#000000" font-family="sans-serif" font-size="14" lengthAdjust="spacing" textLength="92.0049" x="444.18" y="476.8467">plcc-lang-run</text><line style="stroke:#181818;stroke-width:0.5;" x1="416.18" x2="538.1849" y1="488" y2="488"/><line style="stroke:#181818;stroke-width:0.5;" x1="416.18" x2="538.1849" y1="496" y2="496"/></g><!--class plcc-spec--><g class="entity" data-qualified-name="core.plcc-spec" data-source-line="51" id="ent0038"><rect fill="#F1F1F1" height="48" rx="2.5" ry="2.5" style="stroke:#181818;stroke-width:0.5;" width="97.7139" x="739.33" y="207"/><ellipse cx="754.33" cy="223" fill="#ADD1B2" rx="11" ry="11" style="stroke:#181818;stroke-width:1;"/><path d="M757.2988,228.6406 Q756.7206,228.9375 756.08,229.0781 Q755.4394,229.2344 754.7363,229.2344 Q752.2363,229.2344 750.9081,227.5938 Q749.5956,225.9375 749.5956,222.8125 Q749.5956,219.6875 750.9081,218.0313 Q752.2363,216.375 754.7363,216.375 Q755.4394,216.375 756.08,216.5313 Q756.7363,216.6875 757.2988,216.9844 L757.2988,219.7031 Q756.6738,219.125 756.08,218.8594 Q755.4863,218.5781 754.8613,218.5781 Q753.5175,218.5781 752.83,219.6563 Q752.1425,220.7188 752.1425,222.8125 Q752.1425,224.9063 752.83,225.9844 Q753.5175,227.0469 754.8613,227.0469 Q755.4863,227.0469 756.08,226.7813 Q756.6738,226.5 757.2988,225.9219 L757.2988,228.6406 Z " fill="#000000"/><text fill="#000000" font-family="sans-serif" font-size="14" lengthAdjust="spacing" textLength="65.7139" x="768.33" y="227.8467">plcc-spec</text><line style="stroke:#181818;stroke-width:0.5;" x1="740.33" x2="836.0439" y1="239" y2="239"/><line style="stroke:#181818;stroke-width:0.5;" x1="740.33" x2="836.0439" y1="247" y2="247"/></g><!--class plcc-ll1--><g class="entity" data-qualified-name="core.plcc-ll1" data-source-line="52" id="ent0040"><rect fill="#F1F1F1" height="48" rx="2.5" ry="2.5" style="stroke:#181818;stroke-width:0.5;" width="81.9092" x="747.23" y="124"/><ellipse cx="762.23" cy="140" fill="#ADD1B2" rx="11" ry="11" style="stroke:#181818;stroke-width:1;"/><path d="M765.1988,145.6406 Q764.6206,145.9375 763.98,146.0781 Q763.3394,146.2344 762.6363,146.2344 Q760.1363,146.2344 758.8081,144.5938 Q757.4956,142.9375 757.4956,139.8125 Q757.4956,136.6875 758.8081,135.0313 Q760.1363,133.375 762.6363,133.375 Q763.3394,133.375 763.98,133.5313 Q764.6363,133.6875 765.1988,133.9844 L765.1988,136.7031 Q764.5738,136.125 763.98,135.8594 Q763.3863,135.5781 762.7613,135.5781 Q761.4175,135.5781 760.73,136.6563 Q760.0425,137.7188 760.0425,139.8125 Q760.0425,141.9063 760.73,142.9844 Q761.4175,144.0469 762.7613,144.0469 Q763.3863,144.0469 763.98,143.7813 Q764.5738,143.5 765.1988,142.9219 L765.1988,145.6406 Z " fill="#000000"/><text fill="#000000" font-family="sans-serif" font-size="14" lengthAdjust="spacing" textLength="49.9092" x="776.23" y="144.8467">plcc-ll1</text><line style="stroke:#181818;stroke-width:0.5;" x1="748.23" x2="828.1392" y1="156" y2="156"/><line style="stroke:#181818;stroke-width:0.5;" x1="748.23" x2="828.1392" y1="164" y2="164"/></g><!--class plcc-model--><g class="entity" data-qualified-name="core.plcc-model" data-source-line="53" id="ent0042"><rect fill="#F1F1F1" height="48" rx="2.5" ry="2.5" style="stroke:#181818;stroke-width:0.5;" width="108.8154" x="733.78" y="456"/><ellipse cx="748.78" cy="472" fill="#ADD1B2" rx="11" ry="11" style="stroke:#181818;stroke-width:1;"/><path d="M751.7488,477.6406 Q751.1706,477.9375 750.53,478.0781 Q749.8894,478.2344 749.1863,478.2344 Q746.6863,478.2344 745.3581,476.5938 Q744.0456,474.9375 744.0456,471.8125 Q744.0456,468.6875 745.3581,467.0313 Q746.6863,465.375 749.1863,465.375 Q749.8894,465.375 750.53,465.5313 Q751.1863,465.6875 751.7488,465.9844 L751.7488,468.7031 Q751.1238,468.125 750.53,467.8594 Q749.9363,467.5781 749.3113,467.5781 Q747.9675,467.5781 747.28,468.6563 Q746.5925,469.7188 746.5925,471.8125 Q746.5925,473.9063 747.28,474.9844 Q747.9675,476.0469 749.3113,476.0469 Q749.9363,476.0469 750.53,475.7813 Q751.1238,475.5 751.7488,474.9219 L751.7488,477.6406 Z " fill="#000000"/><text fill="#000000" font-family="sans-serif" font-size="14" lengthAdjust="spacing" textLength="76.8154" x="762.78" y="476.8467">plcc-model</text><line style="stroke:#181818;stroke-width:0.5;" x1="734.78" x2="841.5954" y1="488" y2="488"/><line style="stroke:#181818;stroke-width:0.5;" x1="734.78" x2="841.5954" y1="496" y2="496"/></g><!--class plcc-lang-emit--><g class="entity" data-qualified-name="core.plcc-lang-emit" data-source-line="54" id="ent0044"><rect fill="#F1F1F1" height="48" rx="2.5" ry="2.5" style="stroke:#181818;stroke-width:0.5;" width="132.1328" x="722.12" y="290"/><ellipse cx="737.12" cy="306" fill="#ADD1B2" rx="11" ry="11" style="stroke:#181818;stroke-width:1;"/><path d="M740.0888,311.6406 Q739.5106,311.9375 738.87,312.0781 Q738.2294,312.2344 737.5263,312.2344 Q735.0263,312.2344 733.6981,310.5938 Q732.3856,308.9375 732.3856,305.8125 Q732.3856,302.6875 733.6981,301.0313 Q735.0263,299.375 737.5263,299.375 Q738.2294,299.375 738.87,299.5313 Q739.5263,299.6875 740.0888,299.9844 L740.0888,302.7031 Q739.4638,302.125 738.87,301.8594 Q738.2763,301.5781 737.6513,301.5781 Q736.3075,301.5781 735.62,302.6563 Q734.9325,303.7188 734.9325,305.8125 Q734.9325,307.9063 735.62,308.9844 Q736.3075,310.0469 737.6513,310.0469 Q738.2763,310.0469 738.87,309.7813 Q739.4638,309.5 740.0888,308.9219 L740.0888,311.6406 Z " fill="#000000"/><text fill="#000000" font-family="sans-serif" font-size="14" lengthAdjust="spacing" textLength="100.1328" x="751.12" y="310.8467">plcc-lang-emit</text><line style="stroke:#181818;stroke-width:0.5;" x1="723.12" x2="853.2528" y1="322" y2="322"/><line style="stroke:#181818;stroke-width:0.5;" x1="723.12" x2="853.2528" y1="330" y2="330"/></g><!--class plcc-lang-build--><g class="entity" data-qualified-name="core.plcc-lang-build" data-source-line="55" id="ent0046"><rect fill="#F1F1F1" height="48" rx="2.5" ry="2.5" style="stroke:#181818;stroke-width:0.5;" width="134.9287" x="720.72" y="373"/><ellipse cx="735.72" cy="389" fill="#ADD1B2" rx="11" ry="11" style="stroke:#181818;stroke-width:1;"/><path d="M738.6888,394.6406 Q738.1106,394.9375 737.47,395.0781 Q736.8294,395.2344 736.1263,395.2344 Q733.6263,395.2344 732.2981,393.5938 Q730.9856,391.9375 730.9856,388.8125 Q730.9856,385.6875 732.2981,384.0313 Q733.6263,382.375 736.1263,382.375 Q736.8294,382.375 737.47,382.5313 Q738.1263,382.6875 738.6888,382.9844 L738.6888,385.7031 Q738.0638,385.125 737.47,384.8594 Q736.8763,384.5781 736.2513,384.5781 Q734.9075,384.5781 734.22,385.6563 Q733.5325,386.7188 733.5325,388.8125 Q733.5325,390.9063 734.22,391.9844 Q734.9075,393.0469 736.2513,393.0469 Q736.8763,393.0469 737.47,392.7813 Q738.0638,392.5 738.6888,391.9219 L738.6888,394.6406 Z " fill="#000000"/><text fill="#000000" font-family="sans-serif" font-size="14" lengthAdjust="spacing" textLength="102.9287" x="749.72" y="393.8467">plcc-lang-build</text><line style="stroke:#181818;stroke-width:0.5;" x1="721.72" x2="854.6487" y1="405" y2="405"/><line style="stroke:#181818;stroke-width:0.5;" x1="721.72" x2="854.6487" y1="413" y2="413"/></g><!--class plcc-diagram-list--><g class="entity" data-qualified-name="plcc-diagram.plcc-diagram-list" data-source-line="70" id="ent0056"><rect fill="#F1F1F1" height="48" rx="2.5" ry="2.5" style="stroke:#181818;stroke-width:0.5;" width="149.0518" x="186.67" y="859"/><ellipse cx="201.67" cy="875" fill="#ADD1B2" rx="11" ry="11" style="stroke:#181818;stroke-width:1;"/><path d="M204.6388,880.6406 Q204.0606,880.9375 203.42,881.0781 Q202.7794,881.2344 202.0763,881.2344 Q199.5763,881.2344 198.2481,879.5938 Q196.9356,877.9375 196.9356,874.8125 Q196.9356,871.6875 198.2481,870.0313 Q199.5763,868.375 202.0763,868.375 Q202.7794,868.375 203.42,868.5313 Q204.0763,868.6875 204.6388,868.9844 L204.6388,871.7031 Q204.0138,871.125 203.42,870.8594 Q202.8263,870.5781 202.2013,870.5781 Q200.8575,870.5781 200.17,871.6563 Q199.4825,872.7188 199.4825,874.8125 Q199.4825,876.9063 200.17,877.9844 Q200.8575,879.0469 202.2013,879.0469 Q202.8263,879.0469 203.42,878.7813 Q204.0138,878.5 204.6388,877.9219 L204.6388,880.6406 Z " fill="#000000"/><text fill="#000000" font-family="sans-serif" font-size="14" lengthAdjust="spacing" textLength="117.0518" x="215.67" y="879.8467">plcc-diagram-list</text><line style="stroke:#181818;stroke-width:0.5;" x1="187.67" x2="334.7218" y1="891" y2="891"/><line style="stroke:#181818;stroke-width:0.5;" x1="187.67" x2="334.7218" y1="899" y2="899"/></g><!--class plcc-diagram--><g class="entity" data-qualified-name="plcc-diagram.plcc-diagram" data-source-line="72" id="ent0057"><rect fill="#F1F1F1" height="48" rx="2.5" ry="2.5" style="stroke:#181818;stroke-width:0.5;" width="123.4375" x="199.48" y="776"/><ellipse cx="214.48" cy="792" fill="#ADD1B2" rx="11" ry="11" style="stroke:#181818;stroke-width:1;"/><path d="M217.4488,797.6406 Q216.8706,797.9375 216.23,798.0781 Q215.5894,798.2344 214.8863,798.2344 Q212.3863,798.2344 211.0581,796.5938 Q209.7456,794.9375 209.7456,791.8125 Q209.7456,788.6875 211.0581,787.0313 Q212.3863,785.375 214.8863,785.375 Q215.5894,785.375 216.23,785.5313 Q216.8863,785.6875 217.4488,785.9844 L217.4488,788.7031 Q216.8238,788.125 216.23,787.8594 Q215.6363,787.5781 215.0113,787.5781 Q213.6675,787.5781 212.98,788.6563 Q212.2925,789.7188 212.2925,791.8125 Q212.2925,793.9063 212.98,794.9844 Q213.6675,796.0469 215.0113,796.0469 Q215.6363,796.0469 216.23,795.7813 Q216.8238,795.5 217.4488,794.9219 L217.4488,797.6406 Z " fill="#000000"/><text fill="#000000" font-family="sans-serif" font-size="14" lengthAdjust="spacing" textLength="91.4375" x="228.48" y="796.8467">plcc-diagram</text><line style="stroke:#181818;stroke-width:0.5;" x1="200.48" x2="321.9175" y1="808" y2="808"/><line style="stroke:#181818;stroke-width:0.5;" x1="200.48" x2="321.9175" y1="816" y2="816"/></g><!--class plcc-diagram-emit--><g class="entity" data-qualified-name="plcc-diagram.plcc-diagram-emit" data-source-line="73" id="ent0059"><rect fill="#F1F1F1" height="48" rx="2.5" ry="2.5" style="stroke:#181818;stroke-width:0.5;" width="160.1191" x="397.12" y="848"/><ellipse cx="412.12" cy="864" fill="#ADD1B2" rx="11" ry="11" style="stroke:#181818;stroke-width:1;"/><path d="M415.0888,869.6406 Q414.5106,869.9375 413.87,870.0781 Q413.2294,870.2344 412.5263,870.2344 Q410.0263,870.2344 408.6981,868.5938 Q407.3856,866.9375 407.3856,863.8125 Q407.3856,860.6875 408.6981,859.0313 Q410.0263,857.375 412.5263,857.375 Q413.2294,857.375 413.87,857.5313 Q414.5263,857.6875 415.0888,857.9844 L415.0888,860.7031 Q414.4638,860.125 413.87,859.8594 Q413.2763,859.5781 412.6513,859.5781 Q411.3075,859.5781 410.62,860.6563 Q409.9325,861.7188 409.9325,863.8125 Q409.9325,865.9063 410.62,866.9844 Q411.3075,868.0469 412.6513,868.0469 Q413.2763,868.0469 413.87,867.7813 Q414.4638,867.5 415.0888,866.9219 L415.0888,869.6406 Z " fill="#000000"/><text fill="#000000" font-family="sans-serif" font-size="14" lengthAdjust="spacing" textLength="128.1191" x="426.12" y="868.8467">plcc-diagram-emit</text><line style="stroke:#181818;stroke-width:0.5;" x1="398.12" x2="556.2391" y1="880" y2="880"/><line style="stroke:#181818;stroke-width:0.5;" x1="398.12" x2="556.2391" y1="888" y2="888"/></g><!--class plcc-diagram-build--><g class="entity" data-qualified-name="plcc-diagram.plcc-diagram-build" data-source-line="74" id="ent0061"><rect fill="#F1F1F1" height="48" rx="2.5" ry="2.5" style="stroke:#181818;stroke-width:0.5;" width="162.915" x="395.73" y="765"/><ellipse cx="410.73" cy="781" fill="#ADD1B2" rx="11" ry="11" style="stroke:#181818;stroke-width:1;"/><path d="M413.6988,786.6406 Q413.1206,786.9375 412.48,787.0781 Q411.8394,787.2344 411.1363,787.2344 Q408.6363,787.2344 407.3081,785.5938 Q405.9956,783.9375 405.9956,780.8125 Q405.9956,777.6875 407.3081,776.0313 Q408.6363,774.375 411.1363,774.375 Q411.8394,774.375 412.48,774.5313 Q413.1363,774.6875 413.6988,774.9844 L413.6988,777.7031 Q413.0738,777.125 412.48,776.8594 Q411.8863,776.5781 411.2613,776.5781 Q409.9175,776.5781 409.23,777.6563 Q408.5425,778.7188 408.5425,780.8125 Q408.5425,782.9063 409.23,783.9844 Q409.9175,785.0469 411.2613,785.0469 Q411.8863,785.0469 412.48,784.7813 Q413.0738,784.5 413.6988,783.9219 L413.6988,786.6406 Z " fill="#000000"/><text fill="#000000" font-family="sans-serif" font-size="14" lengthAdjust="spacing" textLength="130.915" x="424.73" y="785.8467">plcc-diagram-build</text><line style="stroke:#181818;stroke-width:0.5;" x1="396.73" x2="557.645" y1="797" y2="797"/><line style="stroke:#181818;stroke-width:0.5;" x1="396.73" x2="557.645" y1="805" y2="805"/></g><!--class plcc-diagram-run--><g class="entity" data-qualified-name="plcc-diagram.plcc-diagram-run" data-source-line="75" id="ent0063"><rect fill="#F1F1F1" height="48" rx="2.5" ry="2.5" style="stroke:#181818;stroke-width:0.5;" width="151.9912" x="401.19" y="931"/><ellipse cx="416.19" cy="947" fill="#ADD1B2" rx="11" ry="11" style="stroke:#181818;stroke-width:1;"/><path d="M419.1588,952.6406 Q418.5806,952.9375 417.94,953.0781 Q417.2994,953.2344 416.5963,953.2344 Q414.0963,953.2344 412.7681,951.5938 Q411.4556,949.9375 411.4556,946.8125 Q411.4556,943.6875 412.7681,942.0313 Q414.0963,940.375 416.5963,940.375 Q417.2994,940.375 417.94,940.5313 Q418.5963,940.6875 419.1588,940.9844 L419.1588,943.7031 Q418.5338,943.125 417.94,942.8594 Q417.3463,942.5781 416.7213,942.5781 Q415.3775,942.5781 414.69,943.6563 Q414.0025,944.7188 414.0025,946.8125 Q414.0025,948.9063 414.69,949.9844 Q415.3775,951.0469 416.7213,951.0469 Q417.3463,951.0469 417.94,950.7813 Q418.5338,950.5 419.1588,949.9219 L419.1588,952.6406 Z " fill="#000000"/><text fill="#000000" font-family="sans-serif" font-size="14" lengthAdjust="spacing" textLength="119.9912" x="430.19" y="951.8467">plcc-diagram-run</text><line style="stroke:#181818;stroke-width:0.5;" x1="402.19" x2="552.1812" y1="963" y2="963"/><line style="stroke:#181818;stroke-width:0.5;" x1="402.19" x2="552.1812" y1="971" y2="971"/></g><!--entity author--><g class="entity" data-qualified-name="author" data-source-line="83" id="ent0068"><ellipse cx="66.3374" cy="326.35" fill="#F1F1F1" rx="8" ry="8" style="stroke:#181818;stroke-width:0.5;"/><path d="M66.3374,334.35 L66.3374,361.35 M53.3374,342.35 L79.3374,342.35 M66.3374,361.35 L53.3374,376.35 M66.3374,361.35 L79.3374,376.35" fill="none" style="stroke:#181818;stroke-width:0.5;"/><text fill="#000000" font-family="sans-serif" font-size="14" lengthAdjust="spacing" textLength="120.6748" x="6" y="390.8451">Language Author</text></g><!--link plcc-scan to plcc-make--><g class="link" data-entity-1="ent0022" data-entity-2="ent0023" data-link-type="dependency" data-source-line="39" id="lnk24"><path codeLine="39" d="M310.16,87.68 C319.15,93.02 328.1,99.18 335.73,106 C369.93,136.58 360.96,160.06 395.73,190 C404.4,197.47 410.2714,201.6326 420.5214,207.1726" fill="none" id="plcc-scan-to-plcc-make" style="stroke:#181818;stroke-width:1;"/><polygon fill="#181818" points="424.92,209.55,418.9044,201.7518,420.5214,207.1726,415.1005,208.7896,424.92,209.55" style="stroke:#181818;stroke-width:1;stroke-linejoin:miter;stroke-miterlimit:10;"/></g><!--link plcc-scan to plcc-tokens--><g class="link" data-entity-1="ent0022" data-entity-2="ent0025" data-link-type="dependency" data-source-line="40" id="lnk26"><path codeLine="40" d="M310.49,83.73 C343.28,96.45 382.0585,111.4916 416.2385,124.7516" fill="none" id="plcc-scan-to-plcc-tokens" style="stroke:#181818;stroke-width:1;"/><polygon fill="#181818" points="420.9,126.56,413.956,119.5757,416.2385,124.7516,411.0626,127.0341,420.9,126.56" style="stroke:#181818;stroke-width:1;stroke-linejoin:miter;stroke-miterlimit:10;"/></g><!--link plcc-parse to plcc-make--><g class="link" data-entity-1="ent0027" data-entity-2="ent0023" data-link-type="dependency" data-source-line="42" id="lnk28"><path codeLine="42" d="M313.73,167.99 C347.36,181.03 386.4484,196.1919 420.0684,209.2319" fill="none" id="plcc-parse-to-plcc-make" style="stroke:#181818;stroke-width:1;"/><polygon fill="#181818" points="424.73,211.04,417.7855,204.0561,420.0684,209.2319,414.8926,211.5148,424.73,211.04" style="stroke:#181818;stroke-width:1;stroke-linejoin:miter;stroke-miterlimit:10;"/></g><!--link plcc-parse to plcc-tokens--><g class="link" data-entity-1="ent0027" data-entity-2="ent0025" data-link-type="dependency" data-source-line="43" id="lnk29"><path codeLine="43" d="M313.73,148 C346,148 382.59,148 415.61,148" fill="none" id="plcc-parse-to-plcc-tokens" style="stroke:#181818;stroke-width:1;"/><polygon fill="#181818" points="420.61,148,411.61,144,415.61,148,411.61,152,420.61,148" style="stroke:#181818;stroke-width:1;stroke-linejoin:miter;stroke-miterlimit:10;"/></g><!--link plcc-parse to plcc-trees--><g class="link" data-entity-1="ent0027" data-entity-2="ent0030" data-link-type="dependency" data-source-line="44" id="lnk31"><path codeLine="44" d="M312.86,172.31 C320.92,177.26 328.86,182.86 335.73,189 C369.93,219.58 360.96,243.06 395.73,273 C404.87,280.88 411.3832,285.3766 422.1832,291.1066" fill="none" id="plcc-parse-to-plcc-trees" style="stroke:#181818;stroke-width:1;"/><polygon fill="#181818" points="426.6,293.45,420.5244,285.6984,422.1832,291.1066,416.775,292.7654,426.6,293.45" style="stroke:#181818;stroke-width:1;stroke-linejoin:miter;stroke-miterlimit:10;"/></g><!--link plcc-rep to plcc-make--><g class="link" data-entity-1="ent0032" data-entity-2="ent0023" data-link-type="dependency" data-source-line="46" id="lnk33"><path codeLine="46" d="M305.76,231 C340.22,231 383.42,231 419.77,231" fill="none" id="plcc-rep-to-plcc-make" style="stroke:#181818;stroke-width:1;"/><polygon fill="#181818" points="424.77,231,415.77,227,419.77,231,415.77,235,424.77,231" style="stroke:#181818;stroke-width:1;stroke-linejoin:miter;stroke-miterlimit:10;"/></g><!--link plcc-rep to plcc-tokens--><g class="link" data-entity-1="ent0032" data-entity-2="ent0025" data-link-type="dependency" data-source-line="47" id="lnk34"><path codeLine="47" d="M305.76,214.1 C339,201.21 380.3583,185.168 416.1983,171.268" fill="none" id="plcc-rep-to-plcc-tokens" style="stroke:#181818;stroke-width:1;"/><polygon fill="#181818" points="420.86,169.46,411.0226,168.985,416.1983,171.268,413.9153,176.4437,420.86,169.46" style="stroke:#181818;stroke-width:1;stroke-linejoin:miter;stroke-miterlimit:10;"/></g><!--link plcc-rep to plcc-trees--><g class="link" data-entity-1="ent0032" data-entity-2="ent0030" data-link-type="dependency" data-source-line="48" id="lnk35"><path codeLine="48" d="M305.76,247.9 C340.71,261.45 385.1286,278.6813 421.6486,292.8513" fill="none" id="plcc-rep-to-plcc-trees" style="stroke:#181818;stroke-width:1;"/><polygon fill="#181818" points="426.31,294.66,419.3664,287.6753,421.6486,292.8513,416.4725,295.1335,426.31,294.66" style="stroke:#181818;stroke-width:1;stroke-linejoin:miter;stroke-miterlimit:10;"/></g><!--link plcc-rep to plcc-lang-run--><g class="link" data-entity-1="ent0032" data-entity-2="ent0036" data-link-type="dependency" data-source-line="49" id="lnk37"><path codeLine="49" d="M305.69,250.84 C316.18,256.77 326.9,263.89 335.73,272 C343.75,279.37 422.2204,398.0039 457.3604,451.3739" fill="none" id="plcc-rep-to-plcc-lang-run" style="stroke:#181818;stroke-width:1;"/><polygon fill="#181818" points="460.11,455.55,458.5015,445.8334,457.3604,451.3739,451.8198,450.2328,460.11,455.55" style="stroke:#181818;stroke-width:1;stroke-linejoin:miter;stroke-miterlimit:10;"/></g><!--link plcc-make to plcc-spec--><g class="link" data-entity-1="ent0023" data-entity-2="ent0038" data-link-type="dependency" data-source-line="51" id="lnk39"><path codeLine="51" d="M529.56,231 C587.82,231 677.09,231 734,231" fill="none" id="plcc-make-to-plcc-spec" style="stroke:#181818;stroke-width:1;"/><polygon fill="#181818" points="739,231,730,227,734,231,730,235,739,231" style="stroke:#181818;stroke-width:1;stroke-linejoin:miter;stroke-miterlimit:10;"/></g><!--link plcc-make to plcc-ll1--><g class="link" data-entity-1="ent0023" data-entity-2="ent0040" data-link-type="dependency" data-source-line="52" id="lnk41"><path codeLine="52" d="M529.73,212.94 C553.06,205.07 581.09,196.06 606.64,189 C654.35,175.81 705.1032,164.6608 741.8732,157.0708" fill="none" id="plcc-make-to-plcc-ll1" style="stroke:#181818;stroke-width:1;"/><polygon fill="#181818" points="746.77,156.06,737.1472,153.962,741.8732,157.0708,738.7644,161.7968,746.77,156.06" style="stroke:#181818;stroke-width:1;stroke-linejoin:miter;stroke-miterlimit:10;"/></g><!--link plcc-make to plcc-model--><g class="link" data-entity-1="ent0023" data-entity-2="ent0042" data-link-type="dependency" data-source-line="53" id="lnk43"><path codeLine="53" d="M529.63,235.3 C554.55,240.23 582.5,250.56 598.64,272 C609.81,286.84 594.71,424.76 606.64,439 C637,475.21 687.0202,483.3053 728.3802,483.6753" fill="none" id="plcc-make-to-plcc-model" style="stroke:#181818;stroke-width:1;"/><polygon fill="#181818" points="733.38,483.72,724.4161,479.6397,728.3802,483.6753,724.3446,487.6393,733.38,483.72" style="stroke:#181818;stroke-width:1;stroke-linejoin:miter;stroke-miterlimit:10;"/></g><!--link plcc-make to plcc-lang-emit--><g class="link" data-entity-1="ent0023" data-entity-2="ent0044" data-link-type="dependency" data-source-line="54" id="lnk45"><path codeLine="54" d="M529.73,249.06 C553.06,256.93 581.09,265.94 606.64,273 C644.44,283.45 682.3317,292.1991 716.7517,299.5991" fill="none" id="plcc-make-to-plcc-lang-emit" style="stroke:#181818;stroke-width:1;"/><polygon fill="#181818" points="721.64,300.65,713.6818,294.8477,716.7517,299.5991,712.0003,302.6689,721.64,300.65" style="stroke:#181818;stroke-width:1;stroke-linejoin:miter;stroke-miterlimit:10;"/></g><!--link plcc-make to plcc-lang-build--><g class="link" data-entity-1="ent0023" data-entity-2="ent0046" data-link-type="dependency" data-source-line="55" id="lnk47"><path codeLine="55" d="M529.52,235.68 C554.25,240.72 582.07,251.03 598.64,272 C610.27,286.71 594.26,341.92 606.64,356 C634.55,387.74 676.4377,397.4122 715.4277,399.5822" fill="none" id="plcc-make-to-plcc-lang-build" style="stroke:#181818;stroke-width:1;"/><polygon fill="#181818" points="720.42,399.86,711.6562,395.3661,715.4277,399.5822,711.2116,403.3537,720.42,399.86" style="stroke:#181818;stroke-width:1;stroke-linejoin:miter;stroke-miterlimit:10;"/></g><!--link plcc-trees to plcc-parser-table--><g class="link" data-entity-1="ent0030" data-entity-2="ent0012" data-link-type="dependency" data-source-line="57" id="lnk48"><path codeLine="57" d="M512.45,338.5 C540.84,360.89 579.52,396.75 598.64,438 C614.04,471.22 588.15,488.39 606.64,520 C634.24,567.18 682.8731,598.7334 724.3731,619.3734" fill="none" id="plcc-trees-to-plcc-parser-table" style="stroke:#181818;stroke-width:1;"/><polygon fill="#181818" points="728.85,621.6,722.5729,614.0107,724.3731,619.3734,719.0104,621.1737,728.85,621.6" style="stroke:#181818;stroke-width:1;stroke-linejoin:miter;stroke-miterlimit:10;"/></g><!--link plcc-lang-emit to plcc-python-emit--><g class="link" data-entity-1="ent0044" data-entity-2="ent0007" data-link-type="dependency" data-source-line="59" id="lnk49"><path codeLine="59" d="M854.7,310.6 C894.24,312.39 942.16,322.12 969.74,355 C981.53,369.06 968.71,504.02 977.74,520 C992.32,545.8 1014.2447,562.7181 1038.8747,576.2081" fill="none" id="plcc-lang-emit-to-plcc-python-emit" style="stroke:#181818;stroke-width:1;"/><polygon fill="#181818" points="1043.26,578.61,1037.2879,570.7784,1038.8747,576.2081,1033.4449,577.7949,1043.26,578.61" style="stroke:#181818;stroke-width:1;stroke-linejoin:miter;stroke-miterlimit:10;"/></g><!--link plcc-lang-emit to plcc-java-emit--><g class="link" data-entity-1="ent0044" data-entity-2="ent0003" data-link-type="dependency" data-source-line="60" id="lnk50"><path codeLine="60" d="M854.67,314 C908.17,314 978.38,314 1031.71,314" fill="none" id="plcc-lang-emit-to-plcc-java-emit" style="stroke:#181818;stroke-width:1;"/><polygon fill="#181818" points="1036.71,314,1027.71,310,1031.71,314,1027.71,318,1036.71,314" style="stroke:#181818;stroke-width:1;stroke-linejoin:miter;stroke-miterlimit:10;"/></g><!--link plcc-lang-build to plcc-java-build--><g class="link" data-entity-1="ent0046" data-entity-2="ent0004" data-link-type="dependency" data-source-line="61" id="lnk51"><path codeLine="61" d="M855.82,397 C908.77,397 977.46,397 1030.31,397" fill="none" id="plcc-lang-build-to-plcc-java-build" style="stroke:#181818;stroke-width:1;"/><polygon fill="#181818" points="1035.31,397,1026.31,393,1030.31,397,1026.31,401,1035.31,397" style="stroke:#181818;stroke-width:1;stroke-linejoin:miter;stroke-miterlimit:10;"/></g><!--link plcc-lang-build to plcc-python-build--><g class="link" data-entity-1="ent0046" data-entity-2="ent0008" data-link-type="dependency" data-source-line="62" id="lnk52"><path codeLine="62" d="M856.15,393.57 C895.47,395.48 942.63,405.36 969.74,438 C984.44,455.71 963.9,626.6 977.74,645 C989.38,660.47 1002.302,668.6228 1020.692,674.6928" fill="none" id="plcc-lang-build-to-plcc-python-build" style="stroke:#181818;stroke-width:1;"/><polygon fill="#181818" points="1025.44,676.26,1018.1473,669.6406,1020.692,674.6928,1015.6398,677.2375,1025.44,676.26" style="stroke:#181818;stroke-width:1;stroke-linejoin:miter;stroke-miterlimit:10;"/></g><!--link plcc-lang-run to plcc-python-run--><g class="link" data-entity-1="ent0036" data-entity-2="ent0009" data-link-type="dependency" data-source-line="63" id="lnk53"><path codeLine="63" d="M488.85,504.11 C519.13,572.52 603.66,763.05 606.64,765 C736.21,849.47 923.4204,818.3865 1026.0304,791.7465" fill="none" id="plcc-lang-run-to-plcc-python-run" style="stroke:#181818;stroke-width:1;"/><polygon fill="#181818" points="1030.87,790.49,1021.1536,788.88,1026.0304,791.7465,1023.164,796.6233,1030.87,790.49" style="stroke:#181818;stroke-width:1;stroke-linejoin:miter;stroke-miterlimit:10;"/></g><!--link plcc-lang-run to plcc-java-run--><g class="link" data-entity-1="ent0036" data-entity-2="ent0005" data-link-type="dependency" data-source-line="64" id="lnk54"><path codeLine="64" d="M484.88,504.47 C498.81,549.99 535.7,646.63 606.64,686 C747.75,764.3 851.98,796.34 969.74,686 C989.72,667.27 964.06,586.73 977.74,563 C992.59,537.21 1014.7037,520.2401 1039.3937,506.7301" fill="none" id="plcc-lang-run-to-plcc-java-run" style="stroke:#181818;stroke-width:1;"/><polygon fill="#181818" points="1043.78,504.33,1033.9646,505.1412,1039.3937,506.7301,1037.8048,512.1592,1043.78,504.33" style="stroke:#181818;stroke-width:1;stroke-linejoin:miter;stroke-miterlimit:10;"/></g><!--link plcc-diagram to plcc-make--><g class="link" data-entity-1="ent0057" data-entity-2="ent0023" data-link-type="dependency" data-source-line="72" id="lnk58"><path codeLine="72" d="M323.38,783.26 C328.05,780.13 332.28,776.41 335.73,772 C473.51,595.62 267.61,455.52 395.73,272 C403,261.59 409.3025,256.0021 420.5625,250.0321" fill="none" id="plcc-diagram-to-plcc-make" style="stroke:#181818;stroke-width:1;"/><polygon fill="#181818" points="424.98,247.69,415.1548,248.3718,420.5625,250.0321,418.9022,255.4399,424.98,247.69" style="stroke:#181818;stroke-width:1;stroke-linejoin:miter;stroke-miterlimit:10;"/></g><!--link plcc-diagram to plcc-diagram-emit--><g class="link" data-entity-1="ent0057" data-entity-2="ent0059" data-link-type="dependency" data-source-line="73" id="lnk60"><path codeLine="73" d="M323.23,820.54 C348.31,828.97 372.8111,837.2153 398.9611,846.0153" fill="none" id="plcc-diagram-to-plcc-diagram-emit" style="stroke:#181818;stroke-width:1;"/><polygon fill="#181818" points="403.7,847.61,396.4458,840.9484,398.9611,846.0153,393.8943,848.5306,403.7,847.61" style="stroke:#181818;stroke-width:1;stroke-linejoin:miter;stroke-miterlimit:10;"/></g><!--link plcc-diagram to plcc-diagram-build--><g class="link" data-entity-1="ent0057" data-entity-2="ent0061" data-link-type="dependency" data-source-line="74" id="lnk62"><path codeLine="74" d="M323.23,796.86 C345.72,795.71 366.5466,794.6364 390.4966,793.4064" fill="none" id="plcc-diagram-to-plcc-diagram-build" style="stroke:#181818;stroke-width:1;"/><polygon fill="#181818" points="395.49,793.15,386.2967,789.6169,390.4966,793.4064,386.707,797.6063,395.49,793.15" style="stroke:#181818;stroke-width:1;stroke-linejoin:miter;stroke-miterlimit:10;"/></g><!--link plcc-diagram to plcc-diagram-run--><g class="link" data-entity-1="ent0057" data-entity-2="ent0063" data-link-type="dependency" data-source-line="75" id="lnk64"><path codeLine="75" d="M312.12,824.48 C320.36,829.44 328.55,835 335.73,841 C367.96,867.92 362.99,887.69 395.73,914 C403.3,920.09 407.5732,923.1768 416.2932,928.0868" fill="none" id="plcc-diagram-to-plcc-diagram-run" style="stroke:#181818;stroke-width:1;"/><polygon fill="#181818" points="420.65,930.54,414.7703,922.6388,416.2932,928.0868,410.8452,929.6097,420.65,930.54" style="stroke:#181818;stroke-width:1;stroke-linejoin:miter;stroke-miterlimit:10;"/></g><!--link plcc-diagram-emit to plcc-diagram-class-plantuml-emit--><g class="link" data-entity-1="ent0059" data-entity-2="ent0015" data-link-type="dependency" data-source-line="77" id="lnk65"><path codeLine="77" d="M557.61,884.81 C573.34,890.9 588.2,899.85 598.64,913 C609.75,926.99 594.81,979.61 606.64,993 C619.41,1007.45 631.4246,1015.6343 649.5146,1022.3743" fill="none" id="plcc-diagram-emit-to-plcc-diagram-class-plantuml-emit" style="stroke:#181818;stroke-width:1;"/><polygon fill="#181818" points="654.2,1024.12,647.1629,1017.2295,649.5146,1022.3743,644.3698,1024.7261,654.2,1024.12" style="stroke:#181818;stroke-width:1;stroke-linejoin:miter;stroke-miterlimit:10;"/></g><!--link plcc-diagram-build to plcc-diagram-plantuml-build--><g class="link" data-entity-1="ent0061" data-entity-2="ent0016" data-link-type="dependency" data-source-line="78" id="lnk66"><path codeLine="78" d="M559.04,808.81 C573,814.33 586.81,821.29 598.64,830 C603.51,833.59 602.2,836.9 606.64,841 C645.37,876.69 692.9642,904.642 731.2242,924.332" fill="none" id="plcc-diagram-build-to-plcc-diagram-plantuml-build" style="stroke:#181818;stroke-width:1;"/><polygon fill="#181818" points="735.67,926.62,729.4979,918.945,731.2242,924.332,725.8372,926.0583,735.67,926.62" style="stroke:#181818;stroke-width:1;stroke-linejoin:miter;stroke-miterlimit:10;"/></g><!--link plcc-diagram-run to plcc-diagram-plantuml-run--><g class="link" data-entity-1="ent0063" data-entity-2="ent0017" data-link-type="dependency" data-source-line="79" id="lnk67"><path codeLine="79" d="M497.18,979.49 C520.09,1007.25 561.21,1051.8 606.64,1076 C628.63,1087.71 648.9933,1094.9016 673.4733,1100.8916" fill="none" id="plcc-diagram-run-to-plcc-diagram-plantuml-run" style="stroke:#181818;stroke-width:1;"/><polygon fill="#181818" points="678.33,1102.08,670.5386,1096.0555,673.4733,1100.8916,668.6372,1103.8263,678.33,1102.08" style="stroke:#181818;stroke-width:1;stroke-linejoin:miter;stroke-miterlimit:10;"/></g><!--link author to plcc-scan--><g class="link" data-entity-1="ent0068" data-entity-2="ent0022" data-link-type="dependency" data-source-line="85" id="lnk69"><path codeLine="85" d="M69.22,317.7 C73.9,263.57 90.18,164.76 146.67,106 C163.89,88.1 184.6426,79.2158 207.1826,73.5158" fill="none" id="author-to-plcc-scan" style="stroke:#181818;stroke-width:1;"/><polygon fill="#181818" points="212.03,72.29,202.324,70.6186,207.1826,73.5158,204.2853,78.3744,212.03,72.29" style="stroke:#181818;stroke-width:1;stroke-linejoin:miter;stroke-miterlimit:10;"/></g><!--link author to plcc-parse--><g class="link" data-entity-1="ent0068" data-entity-2="ent0027" data-link-type="dependency" data-source-line="86" id="lnk70"><path codeLine="86" d="M76.5,317.37 C87.29,279.77 108.76,223.41 146.67,189 C163.9,173.37 182.7219,164.9518 203.9619,158.8918" fill="none" id="author-to-plcc-parse" style="stroke:#181818;stroke-width:1;"/><polygon fill="#181818" points="208.77,157.52,199.0179,156.1428,203.9619,158.8918,201.2128,163.8358,208.77,157.52" style="stroke:#181818;stroke-width:1;stroke-linejoin:miter;stroke-miterlimit:10;"/></g><!--link author to plcc-rep--><g class="link" data-entity-1="ent0068" data-entity-2="ent0032" data-link-type="dependency" data-source-line="87" id="lnk71"><path codeLine="87" d="M96.94,317.43 C110.66,301.62 128.05,284.21 146.67,272 C167.88,258.1 189.6094,249.612 211.6894,243.012" fill="none" id="author-to-plcc-rep" style="stroke:#181818;stroke-width:1;"/><polygon fill="#181818" points="216.48,241.58,206.7114,240.3251,211.6894,243.012,209.0026,247.99,216.48,241.58" style="stroke:#181818;stroke-width:1;stroke-linejoin:miter;stroke-miterlimit:10;"/></g><!--link author to plcc-version--><g class="link" data-entity-1="ent0068" data-entity-2="ent0019" data-link-type="dependency" data-source-line="88" id="lnk72"><path codeLine="88" d="M97.39,394.52 C111.07,410.03 128.3,427.03 146.67,439 C163.62,450.04 179.1858,456.9716 197.9058,463.3316" fill="none" id="author-to-plcc-version" style="stroke:#181818;stroke-width:1;"/><polygon fill="#181818" points="202.64,464.94,195.4051,458.2574,197.9058,463.3316,192.8316,465.8322,202.64,464.94" style="stroke:#181818;stroke-width:1;stroke-linejoin:miter;stroke-miterlimit:10;"/></g><!--link author to plcc-lang-list--><g class="link" data-entity-1="ent0068" data-entity-2="ent0020" data-link-type="dependency" data-source-line="89" id="lnk73"><path codeLine="89" d="M127.04,368.69 C150.38,373.65 172.2096,378.2891 195.5596,383.2591" fill="none" id="author-to-plcc-lang-list" style="stroke:#181818;stroke-width:1;"/><polygon fill="#181818" points="200.45,384.3,192.4799,378.514,195.5596,383.2591,190.8145,386.3387,200.45,384.3" style="stroke:#181818;stroke-width:1;stroke-linejoin:miter;stroke-miterlimit:10;"/></g><!--link author to plcc-parser-list--><g class="link" data-entity-1="ent0068" data-entity-2="ent0021" data-link-type="dependency" data-source-line="90" id="lnk74"><path codeLine="90" d="M127.04,343 C147.95,338.45 166.6847,334.3649 188.1547,329.6849" fill="none" id="author-to-plcc-parser-list" style="stroke:#181818;stroke-width:1;"/><polygon fill="#181818" points="193.04,328.62,183.3946,326.6286,188.1547,329.6849,185.0984,334.445,193.04,328.62" style="stroke:#181818;stroke-width:1;stroke-linejoin:miter;stroke-miterlimit:10;"/></g><!--link author to plcc-diagram--><g class="link" data-entity-1="ent0068" data-entity-2="ent0055" data-link-type="dependency" data-source-line="91" id="lnk75"><path codeLine="91" d="M85.67,394.57 C101.59,427.88 125.36,477.26 146.67,520 C170.925,568.64 198.8075,622.9375 220.87,665.54 C226.3856,676.1906 231.5375,686.1103 236.178,695.0279 C238.4983,699.4867 240.6907,703.695 242.7368,707.6189 C243.7599,709.5809 244.7463,711.4717 245.6939,713.2872 C245.8124,713.5141 243.6164,709.3075 243.7337,709.532" fill="none" id="author-to-plcc-diagram" style="stroke:#181818;stroke-width:1;"/><polygon fill="#181818" points="246.0475,713.9645,245.4286,704.1351,243.7337,709.532,238.3367,707.8371,246.0475,713.9645" style="stroke:#181818;stroke-width:1;stroke-linejoin:miter;stroke-miterlimit:10;"/></g><!--link author to plcc-diagram-list--><g class="link" data-entity-1="ent0068" data-entity-2="ent0056" data-link-type="dependency" data-source-line="92" id="lnk76"><path codeLine="92" d="M68.7,394.37 C73.08,496.85 90.01,773.76 146.67,842 C156.98,854.41 166.7178,861.2125 181.7878,867.2425" fill="none" id="author-to-plcc-diagram-list" style="stroke:#181818;stroke-width:1;"/><polygon fill="#181818" points="186.43,869.1,179.5601,862.0428,181.7878,867.2425,176.5881,869.4703,186.43,869.1" style="stroke:#181818;stroke-width:1;stroke-linejoin:miter;stroke-miterlimit:10;"/></g><?plantuml-src VLL1SiCW3Bpp2YPtTwOVw4pl_OI2gKE3ZGTmcamdVozWi0s8dEBihbQM8YaWfVeTnLrC0o6IVrjg5TLYk5ZQ2ysP5MeYP0PsXO5J2TEmk8UEtosVZECC_IEK9dwMZ7K_S8E0Kiea6BEZ7H-5HOdp8cIFCdgP7FuaPPRvOIzgglEiE9efKcYkoALipxtc6RJX-cN5KMBXB3doHWUsDEy531h6r-wkwtOPPHV5TORa4g1TZ_KWIJSHserAXVI5AUsB9LdWZMjVHGxwgUcaC9PWVGc4hzbZXi54k-vZ_JR2bUECLLVNhoqiME5n1HK36wJcV3VLVCOjCo8tpAbWXp6X8xwdYVNsEsrcpd16odUS65NFPIF69ukpqABNAKY2yEAheXp-jsgaQsJpsJBlsVBrRAcEnw9uoKAKnhUfAfO-Qt-bMiUyeTdEKNOT3kjIRKDQesp4anWThOhS3iIX6KrHLcHJTPoxetsjnEz9dRAEhCvB-GOlGbABWLcbwUah_kVGpyNzHlf4mL08ZquIFW-Buuv41ORHh52tZnMMhbU9xmSCzTOu5mjhuMlGFm00?></g></svg>